<?xml version="1.0" encoding="UTF-8"?>
<svg id="Layer_1" xmlns="http://www.w3.org/2000/svg" version="1.1" xmlns:xlink="http://www.w3.org/1999/xlink" viewBox="0 0 20 20">
  <!-- Generator: Adobe Illustrator 29.1.0, SVG Export Plug-In . SVG Version: 2.1.0 Build 142)  -->
  <defs>
    <style>
      .st0 {
        fill: #fff;
      }

      .st1 {
        fill: url(#linear-gradient);
      }
    </style>
    <linearGradient id="linear-gradient" x1="10" y1="18.1" x2="10" y2="4.4" gradientUnits="userSpaceOnUse">
      <stop offset="0" stop-color="#ff0f7b"/>
      <stop offset=".2" stop-color="#fc3b60"/>
      <stop offset=".5" stop-color="#fa6448"/>
      <stop offset=".7" stop-color="#f98237"/>
      <stop offset=".9" stop-color="#f8942c"/>
      <stop offset="1" stop-color="#f89b29"/>
    </linearGradient>
  </defs>
  <rect class="st0" x="1" y="1" width="18" height="18" rx="2.4" ry="2.4"/>
  <path class="st1" d="M5.4,16.5c-.5,0-.9-.2-1.3-.6-.4-.4-.6-.8-.6-1.3,0-.2,0-.5.1-.7,0-.2.2-.5.4-.7,0,0,.2-.2.3-.2.7-.6,1.5-1,3.2-1.9.6-.3,1.4-.7,2.3-1.2,1.7-3.3,2.3-4.5,3.3-5.6,0,0,.1-.2.2-.3.3-.4.8-.5,1.2-.5s.9.2,1.3.5c.3.3.5.8.5,1.2,0,.5-.2.9-.5,1.3,0,0,0,0-.1.1-.8.8-1.7,1.6-5.7,3.6-2.2,4.4-3.2,5.5-3.3,5.6-.2.2-.4.3-.7.4-.2,0-.4.1-.7.1h0ZM4.4,13.5c-.7.7-.5,1.6,0,2.1.3.3.7.4,1.1.4s.7-.2,1-.4c0,0,0,0,0,0,0,0,0,0,0,0,.6-.7.4-1.5,0-2-.3-.3-.7-.5-1.1-.5s-.6,0-.8.3l-.2.2h0ZM5.5,12.7c.5,0,.9.2,1.3.6.3.3.5.8.6,1.3,0,0,0,0,0,0,.6-1,.8-1.3,2.2-4-1.2.6-1.9,1-2.5,1.2-.6.3-1,.5-1.6.8h0ZM12.8,5.3c-.6.8-.9,1.3-1.4,2.4-.2.5-.6,1.2-1,2,.6-.3,1.1-.6,1.5-.8,1.5-.8,2-1,2.8-1.8,0,0,0,0-.1,0-.5,0-.9-.2-1.3-.5-.4-.4-.6-.8-.5-1.3Z"/>
</svg>