<?xml version="1.0" encoding="UTF-8"?>
<svg id="Layer_1" xmlns="http://www.w3.org/2000/svg" version="1.1" xmlns:xlink="http://www.w3.org/1999/xlink" viewBox="0 0 1642.8 480.7">
  <!-- Generator: Adobe Illustrator 29.1.0, SVG Export Plug-In . SVG Version: 2.1.0 Build 142)  -->
  <defs>
    <style>
      .st0 {
        fill: url(#linear-gradient2);
      }

      .st1 {
        fill: url(#linear-gradient1);
      }

      .st2 {
        fill: url(#linear-gradient9);
      }

      .st3 {
        fill: url(#linear-gradient8);
      }

      .st4 {
        fill: url(#linear-gradient7);
      }

      .st5 {
        fill: url(#linear-gradient4);
      }

      .st6 {
        fill: url(#linear-gradient5);
      }

      .st7 {
        fill: url(#linear-gradient3);
      }

      .st8 {
        fill: url(#linear-gradient6);
      }

      .st9 {
        fill: url(#linear-gradient);
      }
    </style>
    <linearGradient id="linear-gradient" x1="16.9" y1="526.9" x2="322.8" y2="-211.9" gradientUnits="userSpaceOnUse">
      <stop offset="0" stop-color="#ff0f7b"/>
      <stop offset=".2" stop-color="#fc3b60"/>
      <stop offset=".5" stop-color="#fa6448"/>
      <stop offset=".7" stop-color="#f98237"/>
      <stop offset=".9" stop-color="#f8942c"/>
      <stop offset="1" stop-color="#f89b29"/>
    </linearGradient>
    <linearGradient id="linear-gradient1" x1="-38.1" y1="504.2" x2="267.7" y2="-234.7" xlink:href="#linear-gradient"/>
    <linearGradient id="linear-gradient2" x1="191.7" y1="599.3" x2="497.6" y2="-139.5" xlink:href="#linear-gradient"/>
    <linearGradient id="linear-gradient3" x1="358.9" y1="668.5" x2="664.8" y2="-70.3" xlink:href="#linear-gradient"/>
    <linearGradient id="linear-gradient4" x1="497.3" y1="725.8" x2="803.2" y2="-13" xlink:href="#linear-gradient"/>
    <linearGradient id="linear-gradient5" x1="672.1" y1="798.2" x2="978" y2="59.3" xlink:href="#linear-gradient"/>
    <linearGradient id="linear-gradient6" x1="819.7" y1="859.3" x2="1125.6" y2="120.4" xlink:href="#linear-gradient"/>
    <linearGradient id="linear-gradient7" x1="949.6" y1="913" x2="1255.4" y2="174.2" xlink:href="#linear-gradient"/>
    <linearGradient id="linear-gradient8" x1="1130.3" y1="987.9" x2="1436.2" y2="249" xlink:href="#linear-gradient"/>
    <linearGradient id="linear-gradient9" x1="602.7" y1="769.4" x2="908.5" y2="30.6" xlink:href="#linear-gradient"/>
  </defs>
  <path class="st9" d="M182.7,143.7h-103.5c-1.1,0-1.8.7-1.8,1.8v1.4c0,1.1.7,1.8,1.8,1.8h16.2c1.1,0,1.8.7,1.8,1.8v201.9c0,1.1-.7,1.8-1.8,1.8h-16.2c-1.1,0-1.8.7-1.8,1.8v1.4c0,1.1.7,1.8,1.8,1.8h103.5c1.1,0,1.8-.7,1.8-1.8v-1.4c0-1.1-.7-1.8-1.8-1.8h-16.5c-1.1,0-1.8-.7-1.8-1.8v-201.9c0-1.1.7-1.8,1.8-1.8h16.5c1.1,0,1.8-.7,1.8-1.8v-1.4c0-1.1-.7-1.8-1.8-1.8Z"/>
  <path class="st1" d="M132,125c19.4,0,31.3-15.1,31.3-31.3s-11.9-31.6-31.3-31.6-31.6,15.1-31.6,31.6,11.9,31.3,31.6,31.3Z"/>
  <path class="st0" d="M435.3,143.7h-55.7c-1.1,0-1.8.7-1.8,1.8v2.2c0,1.1.4,1.1,1.8,1.8,9.7,5,25.2,21.6,25.2,39.2v91.3h-1.8l-44.6-105.3c-9.3-22.3-35.9-35.2-65.4-35.2s-71.5,19-71.5,57.1v155.9c0,1.1-.7,1.8-1.8,1.8h-16.2c-1.1,0-1.8.7-1.8,1.8v1.4c0,1.1.7,1.8,1.8,1.8h104.9c1.1,0,1.8-.7,1.8-1.8v-1.4c0-1.1-.7-1.8-1.8-1.8h-16.2c-1.1,0-1.8-.7-1.8-1.8v-31.6c0-52.1-49.6-107.1-49.6-142.3s8.6-24.1,21.6-24.1,18,6.1,21.2,13.7l81.9,184.3c.4.7,0,1.8-1.4,1.8h-20.1c-1.1,0-1.8.7-1.8,1.8v1.4c0,1.1.7,1.8,1.8,1.8h87.3c1.1,0,1.8-.7,1.8-1.8v-1.4c0-1.1-.7-1.8-1.8-1.8h-18.7c-1.1,0-1.8-.7-1.8-1.8v-163.9c0-17.6,12.2-34.1,24.4-39.2,1.1-.4,1.8-.7,1.8-1.8v-2.2c0-1.1-.7-1.8-1.8-1.8Z"/>
  <path class="st7" d="M556.7,139.4c-84.1,0-84.8,57.5-84.8,69.3v48.2c0,1.1-.7,1.8-1.8,1.8h-15.5c-1.1,0-1.8,1.1-1.8,1.8v2.5c0,1.1.7,1.8,1.8,1.8h15.5c1.1,0,1.8.7,1.8,1.8v85.9c0,1.1-.7,1.8-1.8,1.8h-16.2c-1.1,0-1.8.7-1.8,1.8v1.4c0,1.1.7,1.8,1.8,1.8h115.7c1.1,0,1.8-.7,1.8-1.8v-1.4c0-1.1-.7-1.8-1.8-1.8h-28.4c-1.1,0-1.8-.7-1.8-1.8v-85.9c0-1.1.7-1.8,1.8-1.8h4.3c11.9,0,34.5,20.5,41.7,38.4.7,1.4,1.1,1.8,1.8,1.8h1.4c1.1,0,1.8-.7,1.8-1.8v-81.9c0-1.1-.7-1.8-1.8-1.8h-1.4c-1.1,0-1.4.7-1.8,1.8-4.3,11.9-28.4,37.4-41.7,37.4h-4.3c-1.1,0-1.8-.7-1.8-1.8v-66.1c0-31.6,10.4-46,32.3-46s21.9,3.2,26.9,9c2.2,2.5,2.2,4-.4,4.7-13.7,3.2-22.3,12.6-22.3,26.2s11.1,26.9,25.9,26.9,26.9-10.8,26.9-28.4-21.6-43.8-72.2-43.8Z"/>
  <path class="st5" d="M745.4,143.7h-103.5c-1.1,0-1.8.7-1.8,1.8v1.4c0,1.1.7,1.8,1.8,1.8h16.2c1.1,0,1.8.7,1.8,1.8v201.9c0,1.1-.7,1.8-1.8,1.8h-16.2c-1.1,0-1.8.7-1.8,1.8v1.4c0,1.1.7,1.8,1.8,1.8h103.5c1.1,0,1.8-.7,1.8-1.8v-1.4c0-1.1-.7-1.8-1.8-1.8h-16.5c-1.1,0-1.8-.7-1.8-1.8v-201.9c0-1.1.7-1.8,1.8-1.8h16.5c1.1,0,1.8-.7,1.8-1.8v-1.4c0-1.1-.7-1.8-1.8-1.8Z"/>
  <path class="st6" d="M998,143.7h-55.7c-1.1,0-1.8.7-1.8,1.8v2.2c0,1.1.4,1.1,1.8,1.8,9.7,5,25.2,21.6,25.2,39.2v91.3h-1.8l-44.6-105.3c-9.3-22.3-35.9-35.2-65.4-35.2s-71.5,19-71.5,57.1v155.9c0,1.1-.7,1.8-1.8,1.8h-16.2c-1.1,0-1.8.7-1.8,1.8v1.4c0,1.1.7,1.8,1.8,1.8h104.9c1.1,0,1.8-.7,1.8-1.8v-1.4c0-1.1-.7-1.8-1.8-1.8h-16.2c-1.1,0-1.8-.7-1.8-1.8v-31.6c0-52.1-49.6-107.1-49.6-142.3s8.6-24.1,21.6-24.1,18,6.1,21.2,13.7l81.9,184.3c.4.7,0,1.8-1.4,1.8h-20.1c-1.1,0-1.8.7-1.8,1.8v1.4c0,1.1.7,1.8,1.8,1.8h87.3c1.1,0,1.8-.7,1.8-1.8v-1.4c0-1.1-.7-1.8-1.8-1.8h-18.7c-1.1,0-1.8-.7-1.8-1.8v-163.9c0-17.6,12.2-34.1,24.4-39.2,1.1-.4,1.8-.7,1.8-1.8v-2.2c0-1.1-.7-1.8-1.8-1.8Z"/>
  <path class="st8" d="M1123.1,143.7h-103.5c-1.1,0-1.8.7-1.8,1.8v1.4c0,1.1.7,1.8,1.8,1.8h16.2c1.1,0,1.8.7,1.8,1.8v201.9c0,1.1-.7,1.8-1.8,1.8h-16.2c-1.1,0-1.8.7-1.8,1.8v1.4c0,1.1.7,1.8,1.8,1.8h103.5c1.1,0,1.8-.7,1.8-1.8v-1.4c0-1.1-.7-1.8-1.8-1.8h-16.5c-1.1,0-1.8-.7-1.8-1.8v-201.9c0-1.1.7-1.8,1.8-1.8h16.5c1.1,0,1.8-.7,1.8-1.8v-1.4c0-1.1-.7-1.8-1.8-1.8Z"/>
  <path class="st4" d="M1322.1,143.7h-176.4c-1.1,0-1.8.7-1.8,1.8v68.3c0,1.1.7,1.8,1.8,1.8h3.6c1.4,0,1.4-1.1,1.8-1.8,8.3-21.9,24.1-65,42-65s3.2.7,3.2,1.8v158.5c0,40.6,30.5,54.3,63.6,54.3s55-11.9,55-45.3v-30.2c0-1.1-.7-1.8-1.8-1.8h-2.5c-1.1,0-1.8.7-1.8,1.8v32c0,36.7-44.9,36.7-44.9,0v-169.2c0-.7,0-1.8,2.9-1.8,14,0,39.2,25.2,52.5,65,.4,1.1.7,1.8,1.8,1.8h1.1c1.1,0,1.8-.7,1.8-1.8v-68.3c0-1.1-.7-1.8-1.8-1.8Z"/>
  <path class="st3" d="M1563.6,143.7h-65.8c-1.1,0-1.8.7-1.8,1.8v2.2c0,1.1.7,1.4,1.8,1.8,14,5.7,26.9,22.6,18,41.7l-26.9,57.1h-.7l-55.7-97.7c-.4-.7-.4-.4-.4-1.1s1.1-.7,1.4-.7h15.8c1.1,0,2.2-.7,2.2-1.8v-1.4c0-1.1-.7-1.8-1.8-1.8h-103.1c-1.1,0-1.8.7-1.8,1.8v1.4c0,1.1.7,1.8,1.8,1.8h10.4l90.6,155.9c6.5,11.1,16.9,29.8,16.9,55.7,0,37-21.2,53.2-42.8,53.2s-47.1-16.9-47.1-28.4,45.3-.4,45.3-35.9-15.8-33.4-31.6-33.4-31.3,12.2-31.3,40.2c0,41.7,35.2,64.3,76.5,64.3s91.6-25.9,91.6-75.5-13.7-59.6-32.7-90.2l32-66.8c9-18.7,23.4-34.5,39.2-38.4,1.4-.4,1.8-.4,1.8-1.8v-2.2c0-1.1-.7-1.8-1.8-1.8Z"/>
  <path class="st2" d="M680.7,124.1c4.2,1.8,8.8,2.7,13.7,2.8h0c1,0,99.9,0,190.2-29.6,77.9,25.4,162.2,27.5,184.5,27.6,1,0,2.1.1,3.2.1,19.4,0,31.3-15.1,31.3-31.3s-11.9-31.6-31.3-31.6-4.3.2-6.3.5c-27.3,1.6-112.4,8.3-181.5,30.7-71-23.1-159.1-30.8-183.7-32.5-2-.3-4.1-.5-6.2-.5-5,0-9.7.9-14,2.8-4,1.7-7.6,4.2-10.6,7.4-5.7,6.2-8.9,14.4-8.9,23.3s3.2,16.8,8.9,22.9c3,3.2,6.5,5.7,10.6,7.4ZM1054.8,67c-9,5.8-14.1,15.9-14.1,26.7s5.6,21.6,15.4,27.2c-32.1-.9-100.5-5.3-165.5-25.6,59.9-18.6,130.3-25.8,164.1-28.3ZM878.6,95.3c-66.2,20.8-135.9,26-167.3,27.4,2.9-1.6,5.4-3.6,7.7-6,5.7-6.1,8.8-14.3,8.8-22.9s-3.1-17.1-8.8-23.2c-1.8-2-3.9-3.7-6.1-5.1,33.1,2.9,104.9,11,165.7,30ZM694.4,63.9h0c.1,0,2,.1,5.3.4,15.9,2.4,24.5,16.3,24.5,29.4s-9.7,28.5-27.6,29.4c-1.4,0-2.1,0-2.2,0h0c-19.1-.2-29.4-15.2-29.4-29.4s10.1-29.6,29.5-29.8Z"/>
</svg>